<svg xmlns="http://www.w3.org/2000/svg" width="256" height="256" viewBox="0 0 100 100"><path d="M37.31 67.72L42.56 67.72L42.56 80.19L35.08 80.19Q27.08 80.19 22.61 76.27Q18.14 72.36 18.14 63.50L18.14 63.50L18.14 44.41L12.29 44.41L12.29 32.20L18.14 32.20L18.14 20.50L32.84 20.50L32.84 32.20L42.47 32.20L42.47 44.41L32.84 44.41L32.84 63.67Q32.84 65.82 33.88 66.77Q34.91 67.72 37.31 67.72L37.31 67.72ZM87.71 31.60L65.44 31.60L65.44 43.81L85.13 43.81L85.13 55.16L65.44 55.16L65.44 68.40L87.71 68.40L87.71 80.19L50.73 80.19L50.73 19.81L87.71 19.81L87.71 31.60Z" fill="#000000"></path></svg>